<?xml version="1.0" encoding="UTF-8"?>
<svg width="1024px" height="1024px" viewBox="0 0 1024 1024" version="1.1" xmlns="http://www.w3.org/2000/svg" xmlns:xlink="http://www.w3.org/1999/xlink">
    <!-- Generator: Sketch 43.2 (39069) - http://www.bohemiancoding.com/sketch -->
    <title>kvpb's whduddn99's Cydia iOS 11 Icon Redesign Rework</title>
    <desc>Created with Sketch.</desc>
    <defs>
        <linearGradient x1="50%" y1="0%" x2="50%" y2="96.9387755%" id="linearGradient-1">
            <stop stop-color="#D99A6D" offset="0%"></stop>
            <stop stop-color="#A2561B" offset="100%"></stop>
        </linearGradient>
    </defs>
    <g id="Page-1" stroke="none" stroke-width="1" fill="none" fill-rule="evenodd">
        <g id="kvpb's-whduddn99's-Cydia-iOS-11-Icon-Redesign-Rework">
            <rect id="Rectangle" fill="url(#linearGradient-1)" x="0" y="0" width="1024" height="1024"></rect>
            <path d="M234.190341,385.872821 C235.902707,386.335384 237.527337,386.993939 238.999528,387.853654 L487.190341,532.78951 C488.411558,533.431734 491.097173,534.617143 494,534.617143 C496.904225,534.617143 500.486073,533.430592 502.193683,532.796153 L774.835902,426.503952 C776.570566,425.827727 778.366309,425.352374 780.190341,425.066486 L780.190341,358.78029 C780.190341,354.367104 777.065311,349.024226 773.216631,346.850163 L654.406535,279.736063 C651.525711,278.108727 646.690341,277.78951 644.190341,278.78951 L644.190341,238.796607 C644.190341,234.374409 641.084515,228.997687 637.268361,226.79606 L566.190341,185.78951 L574.800875,180.804464 C580.538819,177.482497 590.015542,177.157924 595.9553,180.07341 L829.458402,294.686654 C845.326613,302.475446 850.245818,320.706294 840.442155,335.411788 L780.724496,424.988277 C791.739206,423.488558 803.663707,428.818208 809.338762,438.486821 L859.968195,524.744374 C870.03416,541.893794 863.450486,562.318573 845.267954,570.37258 L609.44272,674.83208 C593.282933,681.990106 573.749541,674.990486 565.804413,659.202089 L508.882956,546.088938 C505.903951,540.169121 504.026733,540.706171 504.692984,547.317368 L519.377455,693.031282 C522.035546,719.407497 543.856062,732.122026 568.114958,721.430142 L794.190341,621.78951 L794.190341,705.788847 C794.190341,712.422428 789.318678,720.058721 783.309178,722.857934 L508.946245,850.655652 C496.928105,856.253678 478.065377,855.108599 466.809165,848.10084 L240.383886,707.135686 C234.746429,703.625985 230.190341,695.414112 230.190341,688.783221 L230.190341,596.78951 L391.464553,697.386296 C413.952611,711.4135 438.083596,702.121947 445.353295,676.627217 L481.705104,549.141937 C484.129081,540.641083 480.712373,538.464009 474.056759,544.29412 L382.265146,624.700727 C368.968998,636.34774 345.898994,638.433326 330.731247,629.355658 L125.088436,506.281552 C108.023889,496.068679 106.632605,477.531765 121.972071,464.885488 L212.851441,389.962038 C218.14488,385.597982 226.392382,384.055495 233.38359,385.670816 L180.244148,311.984123 C168.616451,295.860384 174.29346,277.187626 192.945167,270.269538 L426.692133,183.570663 C430.833279,182.034675 436.424239,183.581883 438.190341,185.78951 L389.265188,206.17499 C383.148719,208.723519 378.09939,216.155573 377.987072,222.782363 L377.190341,269.78951 L374.279526,267.970251 C371.468847,266.213576 366.702705,265.802991 363.625286,267.056754 L241.592542,316.773799 C237.504419,318.43933 234.190341,323.368034 234.190341,327.788123 L234.190341,385.872821 Z M494.466557,395.26235 C496.523146,394.448923 499.739703,394.685235 501.64715,395.787978 L612.34001,459.782288 C619.989337,464.204555 619.576646,470.545216 611.41656,473.945252 L497.875906,521.253858 C495.840424,522.101975 492.639816,521.883049 490.729916,520.766493 L378.01027,454.868854 C370.377734,450.406755 370.858327,444.152172 379.074911,440.902329 L494.466557,395.26235 Z M364.476854,277.26932 C366.527756,276.452044 369.751807,276.685235 371.657449,277.778394 L483.308528,341.8263 C490.975242,346.224259 490.572115,352.52637 482.40084,355.905469 L367.886335,403.261091 C365.845093,404.105214 362.651743,403.883049 360.739902,402.756694 L248.98031,336.913833 C241.36432,332.426893 241.854139,326.134011 250.059993,322.864009 L364.476854,277.26932 Z M644.487377,288.276306 C646.532467,287.455171 649.752368,287.666649 651.684326,288.751517 L764.247226,351.959915 C771.947795,356.284081 771.572115,362.52637 763.40084,365.905469 L648.886335,413.261091 C646.845093,414.105214 643.640329,413.88834 641.739902,412.783441 L530.026201,347.833615 C522.384866,343.390978 522.838049,337.120354 531.043877,333.82559 L644.487377,288.276306 Z M508.487377,166.304359 C510.532467,165.467731 513.740865,165.672116 515.667527,166.768831 L628.278063,230.870214 C635.961602,235.24392 635.572115,241.52637 627.40084,244.905469 L512.886335,292.261091 C510.845093,293.105214 507.640329,292.88834 505.739902,291.783441 L394.026201,226.833615 C386.384866,222.390978 386.826703,216.074635 394.996003,212.732648 L508.487377,166.304359 Z" id="Combined-Shape" fill="#FFFFFF"></path>
        </g>
    </g>
</svg>