<?xml version="1.0" encoding="UTF-8"?>
<svg width="1024px" height="1024px" viewBox="0 0 1024 1024" version="1.1" xmlns="http://www.w3.org/2000/svg" xmlns:xlink="http://www.w3.org/1999/xlink">
    <!-- Generator: Sketch 43.2 (39069) - http://www.bohemiancoding.com/sketch -->
    <title>whduddn99's Cydia iOS 11 Icon Redesign</title>
    <desc>Created with Sketch.</desc>
    <defs>
        <linearGradient x1="50%" y1="0%" x2="50%" y2="96.9387755%" id="linearGradient-1">
            <stop stop-color="#D99A6D" offset="0%"></stop>
            <stop stop-color="#A2561B" offset="100%"></stop>
        </linearGradient>
    </defs>
    <g id="Page-1" stroke="none" stroke-width="1" fill="none" fill-rule="evenodd">
        <g id="whduddn99's-Cydia-iOS-11-Icon-Redesign">
            <rect id="Rectangle" fill="url(#linearGradient-1)" x="0" y="0" width="1024" height="1024"></rect>
            <path d="M780.771417,424.917895 C791.77789,423.486089 803.675747,428.838721 809.338762,438.486821 L859.968195,524.744374 C870.03416,541.893794 863.450486,562.318573 845.267954,570.37258 L609.44272,674.83208 C593.282933,681.990106 573.949382,674.897003 566.250769,658.99329 L504.190341,530.78951 L774.806572,426.422158 C776.550562,425.749561 778.356245,425.279361 780.190341,424.999935 L780.190341,358.78029 C780.190341,354.367104 777.065311,349.024226 773.216631,346.850163 L654.406535,279.736063 C651.525711,278.108727 646.690341,277.78951 644.190341,278.78951 L644.190341,238.796607 C644.190341,234.374409 641.084515,228.997687 637.268361,226.79606 L566.190341,185.78951 L574.800875,180.804464 C580.538819,177.482497 590.015542,177.157924 595.9553,180.07341 L829.458402,294.686654 C845.326613,302.475446 850.245818,320.706294 840.442155,335.411788 L780.771417,424.917895 Z M234.190341,385.849287 C235.91402,386.309587 237.549567,386.967369 239.031291,387.827908 L485.190341,530.78951 L381.910488,624.310637 C368.810212,636.173091 345.898994,638.433326 330.731247,629.355658 L125.088436,506.281552 C108.023889,496.068679 106.632605,477.531765 121.972071,464.885488 L212.851441,389.962038 C218.134875,385.60623 226.371003,384.05512 233.365334,385.645502 L180.244148,311.984123 C168.616451,295.860384 174.29346,277.187626 192.945167,270.269538 L426.692133,183.570663 C430.833279,182.034675 436.424239,183.581883 438.190341,185.78951 L389.265188,206.17499 C383.148719,208.723519 378.09939,216.155573 377.987072,222.782363 L377.190341,269.78951 L374.279526,267.970251 C371.468847,266.213576 366.702705,265.802991 363.625286,267.056754 L241.592542,316.773799 C237.504419,318.43933 234.190341,323.368034 234.190341,327.788123 L234.190341,385.849287 Z M230.190341,596.78951 L391.464553,697.386296 C413.952611,711.4135 438.008162,702.103923 445.184808,676.586958 L486.190341,530.78951 L503.190341,530.78951 L519.413625,693.022355 C522.051431,719.400411 543.856062,732.122026 568.114958,721.430142 L794.190341,621.78951 L794.190341,705.788847 C794.190341,712.422428 789.318678,720.058721 783.309178,722.857934 L508.946245,850.655652 C496.928105,856.253678 478.065377,855.108599 466.809165,848.10084 L240.383886,707.135686 C234.746429,703.625985 230.190341,695.414112 230.190341,688.783221 L230.190341,596.78951 Z M501.466557,388.26235 C503.523146,387.448923 506.739703,387.685235 508.64715,388.787978 L619.34001,452.782288 C626.989337,457.204555 626.576646,463.545216 618.41656,466.945252 L504.875906,514.253858 C502.840424,515.101975 499.639816,514.883049 497.729916,513.766493 L385.01027,447.868854 C377.377734,443.406755 377.858327,437.152172 386.074911,433.902329 L501.466557,388.26235 Z M364.476854,279.26932 C366.527756,278.452044 369.751807,278.685235 371.657449,279.778394 L483.308528,343.8263 C490.975242,348.224259 490.572115,354.52637 482.40084,357.905469 L367.886335,405.261091 C365.845093,406.105214 362.651743,405.883049 360.739902,404.756694 L248.98031,338.913833 C241.36432,334.426893 241.854139,328.134011 250.059993,324.864009 L364.476854,279.26932 Z M644.487377,291.276306 C646.532467,290.455171 649.752368,290.666649 651.684326,291.751517 L764.247226,354.959915 C771.947795,359.284081 771.572115,365.52637 763.40084,368.905469 L648.886335,416.261091 C646.845093,417.105214 643.640329,416.88834 641.739902,415.783441 L530.026201,350.833615 C522.384866,346.390978 522.838049,340.120354 531.043877,336.82559 L644.487377,291.276306 Z M508.487377,170.304359 C510.532467,169.467731 513.740865,169.672116 515.667527,170.768831 L628.278063,234.870214 C635.961602,239.24392 635.572115,245.52637 627.40084,248.905469 L512.886335,296.261091 C510.845093,297.105214 507.640329,296.88834 505.739902,295.783441 L394.026201,230.833615 C386.384866,226.390978 386.826703,220.074635 394.996003,216.732648 L508.487377,170.304359 Z" id="Combined-Shape" fill="#FFFFFF"></path>
        </g>
    </g>
</svg>